<svg width="48" height="59" viewBox="0 0 48 59" fill="none" xmlns="http://www.w3.org/2000/svg">
<g clip-path="url(#clip0)">
<path d="M24.064 39.3426H20.7396C20.5606 39.3426 20.4071 39.1887 20.4071 39.009V38.3417C20.4071 38.162 20.5606 38.0081 20.7396 38.0081H24.064C24.243 38.0081 24.3965 38.162 24.3965 38.3417V39.009C24.3965 39.1887 24.243 39.3426 24.064 39.3426Z" fill="#D2D6D7"/>
<path d="M24.3963 38.3417H20.3813C20.1768 38.3417 19.9977 38.1621 19.9977 37.9567V37.3664C19.9977 37.1611 20.1768 36.9815 20.3813 36.9815H24.4218C24.6264 36.9815 24.8054 37.1611 24.8054 37.3664V37.9567C24.7798 38.1877 24.6264 38.3417 24.3963 38.3417Z" fill="#FC8F00"/>
<path d="M25.7262 50.6867L21.7368 52.5603L18.2845 54.4852C18.2845 54.4852 14.8322 58.6429 13.1188 58.6429H0L2.30155 55.3064L7.26265 46.2466C7.26265 46.2466 7.90197 37.4691 9.0016 37.4691C10.1012 37.4691 11.8657 36.7248 11.8657 36.7248L17.5685 34.1583C17.5685 34.1583 20.6372 33.4653 19.9467 35.0566C19.8956 35.1336 19.8444 35.2362 19.7933 35.3389L22.6574 35.6726C22.6574 35.6726 23.1177 35.9292 23.041 36.3655C22.9899 36.6735 22.683 37.1098 21.7624 37.5974L19.154 38.1877L16.4177 39.7533L14.5765 43.2695C14.5765 43.2695 12.8631 48.8901 15.7272 50.5584C15.8039 50.6097 15.8551 50.6354 15.9318 50.661C15.9318 50.661 16.9547 51.3797 20.4582 49.8141C20.8673 49.6344 21.3021 49.4291 21.788 49.1725C21.8135 49.1981 26.2376 48.2228 25.7262 50.6867Z" fill="#67CFF0"/>
<path d="M7.26266 46.2723C7.26266 45.836 6.80235 41.5755 6.80235 41.5755L7.92755 40.4463L7.26266 46.2723Z" fill="#1BBDE9"/>
<path d="M11.6356 36.8531L10.4337 39.1373L8.51573 43.2437C8.51573 43.2437 8.72032 43.6031 9.05276 43.0128L11.9169 37.2637L13.0165 36.2371L11.6356 36.8531Z" fill="#00A3D7"/>
<path d="M19.9467 35.0822C19.8956 35.1592 19.8444 35.2619 19.7933 35.3645C17.8753 35.5699 15.9062 36.6478 15.9062 36.6478C14.7555 36.9814 13.6814 37.7771 13.6814 37.7771L10.2035 43.3721C9.76879 42.9358 10.6638 41.9092 10.6638 41.9092L13.7326 37.1868L18.3868 35.2619L19.9467 35.0822Z" fill="#00A3D7"/>
<path d="M25.7262 50.6867L21.7368 52.5602L18.2845 54.4851C18.2845 54.4851 14.8322 58.6429 13.1188 58.6429H8.51573C8.69474 58.4632 9.43635 58.1039 9.58979 57.9756C9.94781 57.6933 10.3058 57.3853 10.6894 57.1286C11.8658 56.3073 13.2723 55.871 14.6788 55.4861C15.1391 55.3577 15.5994 55.2551 16.0341 55.0754C16.699 54.8188 17.3127 54.4851 17.9265 54.1515C19.8189 53.0992 21.7368 52.0469 23.6292 50.9946C23.8082 50.892 23.9617 50.7893 24.0639 50.6353C24.1918 50.353 24.0128 50.0194 23.7571 49.8397C23.5013 49.6857 23.1689 49.6857 22.862 49.6857C22.0693 49.6857 21.2765 49.7371 20.5093 49.814C20.9185 49.6344 21.3532 49.4291 21.8391 49.1724C21.8135 49.1981 26.2376 48.2228 25.7262 50.6867Z" fill="#2EBBE8"/>
<path d="M24.6777 40.6772V48.3511C24.6777 48.6848 24.422 48.9414 24.0895 48.9414H20.6884C20.3559 48.9414 20.1002 48.6848 20.1002 48.3511V40.6772C20.1002 40.3436 20.3559 40.0869 20.6884 40.0869C20.8929 40.0869 21.0464 39.9329 21.0464 39.7276V39.2143H23.7315V39.7276C23.7315 39.9329 23.885 40.0869 24.0895 40.0869C24.422 40.0869 24.6777 40.3436 24.6777 40.6772Z" fill="#EBF6FB"/>
<path d="M23.041 36.3655C22.9898 36.6735 22.683 37.1098 21.7623 37.5974L19.1539 38.1877L16.4176 39.7533L14.5764 43.2694C14.5764 43.2694 12.863 48.8901 15.7272 50.5583C15.0879 50.6353 14.3207 50.507 13.8348 50.199C12.8119 49.6087 12.505 48.2485 12.684 47.0935C12.863 45.9386 13.4512 44.8863 13.8348 43.7571C14.3974 42.1401 14.6275 40.2923 15.9062 39.1373C16.3409 38.7267 16.9035 38.47 17.4405 38.1877C17.952 37.931 18.4635 37.6744 19.0261 37.5974C19.3585 37.5461 19.6909 37.5717 20.0234 37.5461C20.5093 37.4947 20.9952 37.3407 21.4555 37.1354C21.9925 36.9301 22.5295 36.6735 23.041 36.3655Z" fill="#2EBBE8"/>
<path d="M48 58.6429H34.8812L30.1758 42.2941C30.5594 41.9348 31.1987 41.5242 31.9915 41.1135C34.3953 39.8816 38.0011 38.6753 38.0011 38.6753L48 58.6429Z" fill="#E8AB92"/>
<path d="M18.0032 20.4274C18.0032 20.4274 15.3181 22.0443 16.5456 23.2762C16.5456 23.2762 18.3612 23.6099 19.8445 21.685C19.8445 21.685 22.4529 21.608 22.8365 21.2487L22.2227 19.9141L19.333 19.2468L18.0032 20.4274Z" fill="#1BBDE9"/>
<path d="M15.139 19.3494C15.139 19.3494 13.3233 20.838 21.4554 20.2991L16.3409 19.3494H15.139Z" fill="#1BBDE9"/>
<path d="M22.6062 21.5567C22.6062 21.5567 22.683 22.4806 23.6547 22.7116C23.6547 22.7116 23.2967 26.1764 23.9872 26.3561L26.0586 24.7905L24.7544 22.8143L22.6062 21.5567Z" fill="#00A3D7"/>
<path d="M17.7475 9.1347H15.7528V19.8114H17.7475V9.1347Z" fill="#EBF6FB"/>
<path d="M17.5684 9.31434H15.9573V14.1394H17.5684V9.31434Z" fill="white"/>
<path d="M19.333 19.3494H14.2952V19.8114H19.333V19.3494Z" fill="#DBE4E5"/>
<path d="M38.2824 38.008L29.5621 41.8065C29.5621 41.7808 29.5621 41.7552 29.5621 41.7295C29.3831 38.9063 28.0277 37.4691 28.0277 37.4691C25.9563 36.4168 20.8162 30.9758 20.8162 30.9758C19.8444 29.7182 16.52 28.0756 16.52 28.0756L14.1673 27.7933C13.6303 27.3826 13.3745 27.0233 13.2978 26.7154C13.0421 25.6117 15.3181 25.2524 15.3181 25.2524C16.8013 24.5595 20.9696 26.7667 20.9696 26.7667C21.7624 27.203 23.6803 26.972 23.6803 26.972C23.6803 26.2277 25.3937 24.9701 25.3937 24.9701C24.3197 24.6878 24.0384 22.3779 24.0384 22.3779C22.2994 21.8133 21.4044 20.299 21.4044 20.299C19.5887 20.299 18.1822 19.8371 18.1822 19.8371C16.3665 19.8371 14.602 19.1954 14.602 19.1954C12.6841 18.1688 14.602 17.2962 14.602 17.2962L22.1716 16.7829L30.1758 20.2734C31.3777 20.838 31.7102 21.916 31.7102 21.916C33.5258 30.6165 36.2366 35.2105 36.2366 35.2105C37.6175 37.9567 38.2824 38.008 38.2824 38.008Z" fill="#67CFF0"/>
<path d="M31.2 22.9857C31.4743 21.6143 29.2571 20.8143 28.1143 20.5857C29.76 21.6829 30.1714 22.6429 30.1714 22.9857L34.2857 37.7286L36.3429 36.7C34.4229 35.6029 32.1143 27.1 31.2 22.9857Z" fill="#96E3FB"/>
<path d="M38.1288 38.932L38.001 38.6753C38.001 38.6753 35.0601 39.7789 32.0681 41.2932C31.4288 41.6268 30.7895 41.9605 30.1757 42.3198L30.3036 42.7561C30.3036 42.7561 28.4623 42.9358 29.5875 41.8065C29.5875 41.8065 35.5971 37.7771 38.5124 38.0337C38.4869 38.0337 38.9472 38.7523 38.1288 38.932Z" fill="#A3E2F5"/>
<path d="M22.6063 21.5567L19.3585 22.5319C19.3585 22.5319 16.8524 24.8161 17.6196 25.5604C17.6196 25.5604 18.6936 26.5614 20.3047 24.3028C20.3047 24.3028 21.4043 24.2772 22.1204 23.9692C22.1204 23.9692 22.6063 24.7391 23.6803 25.1241V22.7116C23.6547 22.7116 22.6063 22.4036 22.6063 21.5567Z" fill="#1BBDE9"/>
<path d="M17.3128 8.77535H16.2132V9.109H17.3128V8.77535Z" fill="#EBF6FB"/>
<path d="M17.5684 8.41604H15.9573V8.77535H17.5684V8.41604Z" fill="#0088C8"/>
<path d="M17.236 8.41606H16.2386L16.4176 6.51684H17.0569L17.236 8.41606Z" fill="#0088C8"/>
<path d="M16.8267 0.357178H16.6733V6.51683H16.8267V0.357178Z" fill="white"/>
<path d="M17.236 19.8114H16.2386V25.2781H17.236V19.8114Z" fill="#D6DFE1"/>
<path d="M30.6106 40.8826C30.2526 41.1392 29.8945 41.4215 29.5877 41.7295C29.4087 38.9063 28.0533 37.4691 28.0533 37.4691C25.9819 36.4168 20.8418 30.9758 20.8418 30.9758C19.87 29.7182 16.5456 28.0756 16.5456 28.0756L14.1929 27.7933C13.6559 27.3826 13.4001 27.0233 13.3234 26.7153C13.8604 26.7153 14.6021 26.972 15.0624 27.0747C18.4635 27.7163 21.6857 29.3332 24.243 31.6687C25.496 32.8237 26.5957 34.1326 27.6953 35.4415C28.0533 35.8778 28.4369 36.3141 28.7182 36.8274C28.9484 37.1868 29.1274 37.5974 29.2808 37.9824C29.7155 38.932 30.1758 39.9073 30.6106 40.8826Z" fill="#2EBBE8"/>
<path d="M39.3564 58.6429H34.8812L30.3037 42.7305L30.1758 42.2941C30.7896 41.9348 31.4289 41.6012 32.0682 41.2675L32.0938 41.3445C32.0938 41.3702 32.6052 55.1524 39.3564 58.6429Z" fill="#DE9681"/>
<path d="M17.7475 9.62231H16.5711V9.77631H17.7475V9.62231Z" fill="#0088C8"/>
<path d="M17.7475 10.5976H16.5711V10.7516H17.7475V10.5976Z" fill="#0088C8"/>
<path d="M17.7475 11.5985H16.5711V11.7525H17.7475V11.5985Z" fill="#0088C8"/>
<path d="M17.7475 12.5738H16.5711V12.7278H17.7475V12.5738Z" fill="#0088C8"/>
<path d="M20.3815 48.0945V40.7542C20.3815 40.7542 20.8162 40.3692 21.1486 40.3692C21.1486 40.3692 20.7651 40.5232 20.7651 41.1392V48.0945H20.3815Z" fill="white"/>
<path d="M24.6777 43.1154H20.1002V46.2723H24.6777V43.1154Z" fill="white"/>
<path d="M20.8418 45.0146C20.8673 45.0146 20.8929 45.0146 20.9185 45.0146C20.944 45.0146 20.9696 45.0146 20.9952 45.0403V44.8093C20.9696 44.8093 20.944 44.7837 20.9185 44.7837C20.8929 44.7837 20.8673 44.7837 20.8418 44.7837C20.6883 44.7837 20.5605 44.835 20.4582 44.9633C20.3559 45.0916 20.3047 45.2456 20.3047 45.451C20.3047 45.6306 20.3559 45.7846 20.4582 45.9129C20.5605 46.0413 20.6883 46.0926 20.8418 46.0926C20.8673 46.0926 20.8929 46.0926 20.9185 46.0926C20.944 46.0926 20.9696 46.0926 20.9952 46.0669V45.8103C20.9696 45.8103 20.944 45.8359 20.9185 45.8359C20.8929 45.8359 20.8673 45.8359 20.8418 45.8359C20.765 45.8359 20.6883 45.8103 20.6372 45.7333C20.586 45.6563 20.5605 45.5536 20.5605 45.451C20.5605 45.3226 20.586 45.22 20.6372 45.1686C20.6883 45.066 20.765 45.0146 20.8418 45.0146Z" fill="#FC8F00"/>
<path d="M21.8647 44.9633C21.788 44.835 21.6857 44.7837 21.5323 44.7837C21.4044 44.7837 21.2766 44.835 21.1998 44.9633C21.1231 45.066 21.072 45.2456 21.072 45.4253C21.072 45.6306 21.0975 45.7846 21.1743 45.9129C21.251 46.0156 21.3533 46.0926 21.5067 46.0926C21.6346 46.0926 21.7369 46.0413 21.8392 45.9129C21.9159 45.8103 21.967 45.6563 21.967 45.451C21.967 45.2456 21.9414 45.066 21.8647 44.9633ZM21.6857 45.7333C21.6601 45.8103 21.609 45.8359 21.5323 45.8359C21.4556 45.8359 21.43 45.8103 21.3788 45.7333C21.3533 45.6563 21.3277 45.5536 21.3277 45.4253C21.3277 45.297 21.3533 45.1943 21.3788 45.1173C21.4044 45.0403 21.4556 45.0146 21.5323 45.0146C21.609 45.0146 21.6346 45.0403 21.6857 45.1173C21.7113 45.1943 21.7369 45.297 21.7369 45.4253C21.7369 45.5536 21.7113 45.6563 21.6857 45.7333Z" fill="#FC8F00"/>
<path d="M22.6573 44.8093L22.5039 45.3996C22.4783 45.4509 22.4783 45.5279 22.4783 45.5793C22.4783 45.6306 22.4528 45.7076 22.4528 45.7589C22.4528 45.6819 22.4272 45.6306 22.4272 45.5536C22.4272 45.5023 22.4016 45.4253 22.4016 45.3739L22.2482 44.8093H21.9925L22.3505 46.0669H22.5551L22.9131 44.8093H22.6573Z" fill="#FC8F00"/>
<path d="M22.9898 44.8093V46.0669H23.2455V44.8093H22.9898Z" fill="#FC8F00"/>
<path d="M24.1151 44.9633C24.0128 44.8606 23.8849 44.8093 23.6804 44.8093H23.4758V46.0669H23.6548C23.7571 46.0669 23.8338 46.0669 23.8849 46.0412C23.9361 46.0156 23.9872 46.0156 24.0384 45.9642C24.1151 45.9129 24.1662 45.8359 24.1918 45.7589C24.2174 45.6819 24.243 45.5536 24.243 45.4253C24.2685 45.22 24.2174 45.066 24.1151 44.9633ZM23.9361 45.7333C23.8849 45.8103 23.8338 45.8359 23.7315 45.8359H23.7059V45.0403H23.7315C23.8338 45.0403 23.8849 45.066 23.9361 45.143C23.9872 45.22 24.0128 45.3226 24.0128 45.4509C24.0128 45.5536 23.9872 45.6563 23.9361 45.7333Z" fill="#FC8F00"/>
<path d="M24.4731 44.8093V45.0146H24.6009V46.0669H24.6777V44.8093H24.4731Z" fill="#FC8F00"/>
<path d="M24.6777 43.1154H20.1002V43.7571H24.6777V43.1154Z" fill="#FC8F00"/>
</g>
<defs>
<clipPath id="clip0">
<rect width="48" height="58.2857" fill="white" transform="translate(0 0.357178)"/>
</clipPath>
</defs>
</svg>
