<svg width="74" height="76" viewBox="0 0 74 76" fill="none" xmlns="http://www.w3.org/2000/svg">
<path d="M58.3 27.2001C58.3 30.6 58.3 34.0001 58.3 37.4001C58.2 45.9001 54.6 53.7001 48.7 59.4001C48.6 59.5 48.5 59.5 48.5 59.6L48.4 59.7001C45.8 62.1001 42.8 64.1 39.5 65.6C39.2 65.8 38.8 65.9 38.5 66.1C36.6 66.9 34.6 67.5 32.5 68C32.3 68 32 68 31.7 68C26.7 67 22.2 64.8001 18.3 61.9001C18 61.7001 17.7 61.4001 17.4 61.2001C13.3 57.9001 10.1 53.6 8.2 48.8C7.4 46.8 6.8 44.7 6.4 42.6C6.1 40.7 5.9 38.8001 5.9 36.9001C5.8 29.6001 5.9 22.3 5.9 14.9C5.9 14.2 6.1 14 6.8 13.9C15.4 12.3 23.7 9.80005 31.8 6.50005C32.1 6.40005 32.5 6.40005 32.8 6.50005C41 9.90005 49.4 12.4 58.2 14C58.7 14.1 58.7 14.3 58.7 14.7C58.3 18.8 58.3 23 58.3 27.2001Z" fill="#0752AD"/>
<path fill-rule="evenodd" clip-rule="evenodd" d="M39.4 65.7C39.1 65.9 38.7 66 38.4 66.2C36.5 67 34.5 67.6 32.4 68.1C32.2 68.1 31.9 68.1 31.6 68.1C26.6 67.1 22.1 64.9 18.2 62C17.9 61.8 17.6 61.5 17.3 61.3L31.5 62.5L39.4 65.7Z" fill="white"/>
<path fill-rule="evenodd" clip-rule="evenodd" d="M48.4 59.3C45.5 62 42.2 64.2 38.4 65.8C36.9 66 35.4 66.1 33.9 66.1C28.1 66.1 22.1 64.4 17.6 61.5C13.1 58.1 10 54 7.5 47.5C9.4 46.3 12.1494 45.2 14.6494 44.3C14.8494 44.2 14.7396 44.0473 15 44C15.2418 43.9561 15.5 44 15.5 44C15.5 43.9 15.9 44.1 16 44C16.3 43.5 16.3 43.4 16.5 43C16.7 42.6 16.9 42.3 17.1 42C17.2 41.9 17.2 41.8 17.3 41.7C17.4 41.6 17.5 41.4 17.6 41.3C17.8 41 18 40.7 18.3 40.4C18.3 40.3 18.4 40.3 18.4 40.2C18.4 40.1 18.5 40.1 18.5 40C18.6 39.8 18.8 39.7 18.9 39.5C19 39.4 19 39.4 19.1 39.3C19.2 39.2 19.3 39.1 19.4 39L20.3 39.6L20.1 42.7L31.3 60.2L31.4 60.4V59.7L31.8 50.1L31.9 47.7L32 44.8L35.3 44.2L37.9 48.3L38 48.4C38 48.4 40.3 49 42.4 50.1C42.6 50.2 42.8 50.3 43 50.4C43.9 50.9 44.7 51.4 45.2 52L46.1 54.2L48.4 59.3Z" fill="white"/>
<path fill-rule="evenodd" clip-rule="evenodd" d="M21 38L20.6847 42C20.4483 41.7101 16.8225 38 21 38Z" fill="#1A1814"/>
<path d="M24.9069 49.7375C24.2891 49.3123 23.615 49.206 22.9972 49.4186C21.1998 50.0033 19.8517 52.7143 19.3462 53.99L16.3692 43.8372V43.7841C16.4254 43.7309 16.4254 43.6777 16.4816 43.6246L16.5377 43.5183C16.7624 43.093 16.9871 42.7209 17.2118 42.3488C17.3803 42.0299 17.6049 41.7641 17.7734 41.4983C17.8296 41.4452 17.8858 41.392 17.8858 41.3389L18.1666 40.9136C18.3913 40.5947 18.5598 40.3821 18.7283 40.1694L18.8968 39.9568C18.8968 39.9037 18.953 39.9037 18.953 39.8505L19.0092 39.7973C19.1215 39.691 19.1777 39.5847 19.2338 39.5316C19.3462 39.4252 19.4024 39.3721 19.4024 39.3721C19.4585 39.3189 19.4585 39.1595 19.4024 39.1063C19.4024 39.1063 19.4024 39.1063 19.4024 39.0532C19.3462 39 19.3462 39 19.29 39C19.2338 39 19.1215 39 19.0653 39.0532C19.0653 39.0532 18.8968 39.2126 18.6722 39.4784L18.616 39.5847L18.5598 39.6379L18.5036 39.691L18.3913 39.8505C18.2228 40.0631 17.9981 40.3289 17.7734 40.6478L17.4926 41.0731C17.4364 41.1262 17.3803 41.1794 17.3803 41.2857C17.2118 41.5515 16.9871 41.8704 16.8186 42.1362C16.5939 42.5083 16.3692 42.8804 16.0884 43.3056L16.0322 43.412C16.0322 43.4651 15.976 43.5183 15.9199 43.6246C15.5267 43.7309 12.1565 44.5814 8 47.2392C8.05617 47.3455 8.05617 47.3987 8.11234 47.505C8.11234 47.5581 8.16851 47.6644 8.22468 47.7176C11.3702 45.804 14.1786 44.6877 15.3582 44.3156C15.5828 44.2625 15.7514 44.2093 15.8637 44.1561H15.9199L19.0653 54.8405C19.0653 54.9468 19.1777 55 19.29 55C19.4024 55 19.4585 54.9468 19.5147 54.8405C19.5147 54.7874 21.0874 50.588 23.1095 49.9502C23.615 49.7907 24.1206 49.8439 24.6261 50.2159C24.7384 50.2691 24.8508 50.2691 24.9631 50.1628C25.0193 49.9502 25.0193 49.7907 24.9069 49.7375Z" fill="black"/>
<path fill-rule="evenodd" clip-rule="evenodd" d="M42 28.1L41.8 31.8L40.8 33.4C40.8 33.4 40.3 41.1 36.1 43.7L32.6 47.6L33.3 50.4V50.5L34 53.9L31.4 60.7L20.1 43.1L20.3 39.1L20.4 37.2L20.5 35.3V35.1C20.5 35.1 17.8 35.3 18.2 29.5C18.2 29.5 18.3 27.4 19.1 26.6C19.2 26.5 19.3 26.5 19.4 26.5C21.3 26.5 22.1 30.3 22.1 30.3H23.1V30.1H23.3V30L23.7 27.9C24 27.8 24.4 27.6 24.7 27.4C25.6 26.8 27 25.3 28.8 21.4C29.7 23.5 40 23.4 40 23.4C40.5 23.6 40.9 24.2 41.1 24.8C41.5 25.8 41.6 27.1 41.6 28.3C41.9 28.2 42 28.1 42 28.1Z" fill="#E8AB92"/>
<path fill-rule="evenodd" clip-rule="evenodd" d="M41.3 26.4C41.3 25.1 40.1 24.1 38.9 23.7C37.7 23.3 36.4 23.5 35.1 23.6C33.5 23.8 31.9 23.9 30.3 24.1C29.8 24.1 29.3 24.2 29 23.8C28.7 25.3 27.5 26.4 26.4 27.4C25.8 27.9 25.1 28.5 24.3 28.6C24 28.6 24 30.3 24 30.6C23.8 30.6 23.5 30.3 23.4 30L23.8 27.9C24.1 27.8 24.5 27.6 24.8 27.4C25.7 26.8 27.1 25.3 28.9 21.4C29.8 23.5 40.1 23.4 40.1 23.4C40.6 23.6 41 24.2 41.2 24.8C41.4 25.2 41.3 25.8 41.3 26.4Z" fill="#DE9681"/>
<path fill-rule="evenodd" clip-rule="evenodd" d="M42 28.0999C41.9 28.0999 41.8 28.1999 41.7 28.1999C41.6 26.0999 41.3 23.8999 40.1 23.2999C40.1 23.2999 29.8 23.3999 28.9 21.2999C27.1 25.1999 25.7 26.6999 24.8 27.2999C24.5 27.5999 24.1 27.7999 23.8 27.7999L23.4 29.9999H23.2V30.1999H22.2C22.2 30.1999 21.4 26.3999 19.5 26.3999C19.4 26.3999 19.3 26.3999 19.2 26.4999C18.4 27.2999 18.3 29.3999 18.3 29.3999C17.9 35.0999 20.6 34.9999 20.6 34.9999V35.1999L20.5 37.0999C20 36.8999 19.2 36.2999 18.8 35.4C17.2 32.2999 16.3 28.1999 16.5 24.7999C16.8 21.1999 18.8 17.4999 22.2 16.3999C22.8 13.2999 26.4 11.2999 29.6 11.3999C32.8 11.4999 35.9 12.9999 38.7 14.4999C39.6 14.9999 40.5 15.3999 41.3 15.8999C42.5 16.4999 43.7 17.0999 44.3 18.1999C44.9 19.0999 45.2 20.1999 45.3 21.2999C45.6 23.8999 44.5 26.9999 42 28.0999Z" fill="#1A1814"/>
<path d="M38.8 31.9C38.5 31.9 38.3 32.2 38.3 32.7C38.3 33.1 38.5 33.5 38.8 33.5C39.1 33.5 39.3 33.2 39.3 32.7C39.3 32.2 39.1 31.9 38.8 31.9ZM31 30.7C30.7 30.7 30.5 31 30.5 31.5C30.5 31.9 30.7 32.2999 31 32.2999C31.3 32.2999 31.5 32 31.5 31.5C31.5 31.1 31.3 30.7 31 30.7Z" fill="#0B0B0B"/>
<path fill-rule="evenodd" clip-rule="evenodd" d="M32.3 35.9H32.6C32.8 36 32.9 36.1 33 36.2C33.5 36.7 34.1 37 34.8 37C35.5 37.1 36.3 36.7 36.6 36.2C37.4 36.7 37.9 37.6 38 38.4C38.1 39.2 37.9 40.1 37.6 40.9C34.7 39.3 30.1 39.3 26.7 40.1C26.8 40 28 37.7 28.9 36.9C29.9 36.4 31.1 35.9 32.3 35.9Z" fill="#1A1814"/>
<path d="M41.4 29.3001C41.1 28.5001 40.3 28.0001 39.5 28.0001C38.9 28.0001 38.3 28.3001 37.5 28.8001C37.4 28.9001 37.4 29.0001 37.5 29.1001C37.6 29.2001 37.7 29.2001 37.8 29.1001C38.5 28.6001 39 28.4001 39.5 28.4001C40.2 28.4001 40.8 28.8001 41 29.4001C41 29.5001 41.1 29.6001 41.2 29.6001H41.3C41.4 29.6001 41.5 29.4001 41.4 29.3001ZM33.3 28.3001C33 27.7001 32.4 27.4001 32 27.3001C31.5 27.2001 31 27.2001 30.4 27.4001C29.7 27.5001 29.1 27.7001 28.8 28.2001C28.7 28.3001 28.8 28.5001 28.9 28.5001C29 28.6001 29.2 28.5001 29.2 28.4001C29.4 28.1001 29.9 27.8001 30.5 27.8001C31 27.7001 31.5 27.6001 31.9 27.7001C32.2 27.8001 32.7 28.0001 32.9 28.4001C32.9 28.5001 33 28.5001 33.1 28.5001H33.2C33.2 28.6001 33.3 28.4001 33.3 28.3001ZM45.7 52.7001C45.4 52.0001 44.5 51.3001 43.3 50.6001C43.1 50.5001 42.9 50.4001 42.7 50.3001C40.7 49.3001 38.6 48.6001 38.2 48.5001H38.1C37 46.5001 36 44.9001 35.9 44.8001C35.8 44.7001 35.7 44.7001 35.6 44.7001C35.5 44.7001 35.5 44.8001 35.5 44.9001C35.5 44.9001 35.5 45.0001 35.5 45.1001C35.5 45.2001 39.9 52.1001 40.7 55.5001C39.7 54.3001 37.8 52.1001 36 52.3001C35.2 52.4001 34.6 52.9001 34.2 53.9001C34.2 54.0001 34.1 54.1001 34.1 54.2001L31.6 60.0001L31.4 60.4001V60.5001C31.4 60.6001 31.4 60.6001 31.5 60.7001C31.6 60.7001 31.7 60.7001 31.8 60.6001L34.5 54C35.2 52.9999 35.3 52.6 36 52.5C38 52.3 40.6 56.1001 40.6 56.2001C40.7 56.3001 40.8 56.3001 40.9 56.3001C41 56.3001 41.1 56.2001 41.1 56.1001C41.1 54.5001 39.7 51.5001 38.3 48.9001C39.1 49.1001 40.8 49.8001 42.5 50.6001C42.7 50.7001 42.9 50.8001 43.1 50.9001C44.3 51.6001 45 52.2001 45.3 52.8001L48.3 59.6001L48.4 59.5001C48.5 59.4001 48.6 59.3001 48.6 59.3001L45.7 52.7001Z" fill="black"/>
<path fill-rule="evenodd" clip-rule="evenodd" d="M33.4 50.5C32.4 50.5 24.6 50.6 23.2 42.7C23.2 42.7 28.5 50.6 32.7 47.7L33.4 50.5Z" fill="#DE9681"/>
<path fill-rule="evenodd" clip-rule="evenodd" d="M23.5 30.1C23.5 30.1 30.7 36.5 40.6 35.3C40.6 35.3 40.4 40.8 36.3 43.8L32.9 47.7C32.9 47.7 28.3 51 23.4 42.7L20.8 35.2L22.4 30.3L23.5 30.1Z" fill="#67CFF0"/>
<path d="M62.6003 25.6C62.6003 29.5 62.6003 33.5 62.6003 37.4C62.5003 54.5 49.8003 69.4 32.4003 73C32.1003 73.1 31.8003 73.1 31.5003 73C16.3003 69.8 4.4003 58 1.9003 43.3C1.5003 41.1 1.3003 38.9 1.3003 36.7C1.2003 28.2 1.3003 19.7 1.3003 11.1C1.3003 10.3 1.5003 10.1 2.3003 9.90004C12.3003 8.10004 22.0003 5.20004 31.3003 1.30004C31.6003 1.20004 32.1003 1.10004 32.4003 1.30004C42.0003 5.30004 51.8003 8.20004 62.0003 10.1C62.6003 10.2 62.6003 10.5 62.6003 10.9C62.6003 15.8 62.6003 20.7 62.6003 25.6Z" stroke="#67CFF0" stroke-width="1.6" stroke-miterlimit="10"/>
<path d="M66.9996 73.3999H69.4996V75.2999H61.5996V73.3999H64.1996V58.3999H66.9996V73.3999Z" fill="#EAEAEA"/>
<path d="M66.9996 73.3999H69.4996V75.2999H61.5996V73.3999H64.1996V58.3999H66.9996V73.3999Z" stroke="#1A1814" stroke-width="0.4" stroke-miterlimit="10"/>
<path d="M73.5002 56V58.3H57.7002V56H61.6002V29H69.5002V56H73.5002Z" fill="white"/>
<path d="M73.5002 56V58.3H57.7002V56H61.6002V29H69.5002V56H73.5002Z" stroke="#1A1814" stroke-width="0.4" stroke-miterlimit="10"/>
<path d="M68.3998 27H62.7998V29H68.3998V27Z" fill="#67CFF0"/>
<path d="M67.8998 27.0001H63.2998L63.9998 21.6001H67.1998L67.8998 27.0001Z" fill="#67CFF0"/>
<path d="M68.3998 27H62.7998V29H68.3998V27Z" stroke="#1A1814" stroke-width="0.4" stroke-miterlimit="10"/>
<path d="M67.8998 27.0001H63.2998L63.9998 21.6001H67.1998L67.8998 27.0001Z" stroke="#1A1814" stroke-width="0.4" stroke-miterlimit="10"/>
<path d="M65.5 4V4V22V22V4Z" stroke="#1A1814" stroke-width="0.4" stroke-miterlimit="10"/>
<path d="M64.0998 31H62.7998V56H64.0998V31Z" fill="#67CFF0"/>
<path d="M67.0996 33.5H69.4996" stroke="#1A1814" stroke-width="0.4" stroke-miterlimit="10"/>
<path d="M67.0996 36.8999H69.4996" stroke="#1A1814" stroke-width="0.4" stroke-miterlimit="10"/>
<path d="M67.0996 40.3H69.4996" stroke="#1A1814" stroke-width="0.4" stroke-miterlimit="10"/>
<path d="M63.6996 48.2001H50.8996C50.3996 48.2001 50.0996 47.8001 50.0996 47.4001V45.4001C50.0996 44.9001 50.4996 44.6001 50.8996 44.6001H63.6996C64.1996 44.6001 64.4996 45.0001 64.4996 45.4001V47.4001C64.4996 47.8001 64.0996 48.2001 63.6996 48.2001Z" fill="#FF9700"/>
<path d="M52.5996 48.2001H52.2996H50.8996C50.3996 48.2001 50.0996 47.8001 50.0996 47.4001V45.4001C50.0996 44.9001 50.4996 44.6001 50.8996 44.6001H63.6996C64.1996 44.6001 64.4996 45.0001 64.4996 45.4001V47.4001C64.4996 47.9001 64.0996 48.2001 63.6996 48.2001H62.2996H61.7996" stroke="black" stroke-width="0.4" stroke-miterlimit="10"/>
<path d="M62.2996 50.6659L52.2996 50.5846C51.6996 50.5846 51.1996 49.9001 51.1996 49.3001C51.1996 48.7001 51.6996 48.2001 52.2996 48.2001H62.2996C62.8996 48.2001 63.3996 48.7001 63.3996 49.3001C63.3996 49.9001 62.8996 50.6659 62.2996 50.6659Z" fill="#EAEAEA"/>
<path d="M61.7996 50.4001H62.2996C62.8996 50.4001 63.3996 49.9001 63.3996 49.3001C63.3996 48.7001 62.8996 48.2001 62.2996 48.2001H61.7996" stroke="black" stroke-width="0.4" stroke-miterlimit="10"/>
<path d="M52.6996 48.2001H52.1996C51.5996 48.2001 51.0996 48.7001 51.0996 49.3001C51.0996 49.9001 51.5996 50.4001 52.1996 50.4001H52.6996" stroke="black" stroke-width="0.4" stroke-miterlimit="10"/>
<path d="M64.4996 53.6001V74.2001C64.4996 74.8001 63.9996 75.3001 63.3996 75.3001H51.1996C50.5996 75.3001 50.0996 74.8001 50.0996 74.2001V53.6001C50.0996 53.0001 50.5996 52.5001 51.1996 52.5001C51.5996 52.5001 51.8996 52.2001 51.8996 51.8001V50.6001H62.5996V51.8001C62.5996 52.2001 62.8996 52.5001 63.2996 52.5001C63.9996 52.5001 64.4996 53.0001 64.4996 53.6001Z" fill="#67CFF0"/>
<path d="M64.4996 53.6001V74.1001H54.1996C53.5996 74.1001 53.0996 73.6001 53.0996 73.0001V52.4001C53.0996 51.8001 53.5996 51.3001 54.1996 51.3001C54.5996 51.3001 54.8996 51.0001 54.8996 50.6001H62.5996V51.8001C62.5996 52.2001 62.8996 52.5001 63.2996 52.5001C63.9996 52.5001 64.4996 53.0001 64.4996 53.6001Z" fill="white"/>
<path d="M64.4996 56.5001H50.0996V69.0001H64.4996V56.5001Z" fill="#FF9700"/>
<path d="M61.7996 50.5001H62.6996V51.7001C62.6996 52.1001 62.9996 52.4001 63.3996 52.4001C63.9996 52.4001 64.4996 52.9001 64.4996 53.5001V74.1001C64.4996 74.7001 63.9996 75.2001 63.3996 75.2001H51.1996C50.5996 75.2001 50.0996 74.7001 50.0996 74.1001V53.6001C50.0996 53.0001 50.5996 52.5001 51.1996 52.5001C51.5996 52.5001 51.8996 52.2001 51.8996 51.8001V50.6001H52.5996" stroke="black" stroke-width="0.4" stroke-miterlimit="10"/>
<path d="M62.8996 59.9001H50.5996V61.0001H62.8996V59.9001Z" fill="white"/>
</svg>
