<svg width="18" height="18" viewBox="0 0 18 18" fill="none" xmlns="http://www.w3.org/2000/svg">
<g clip-path="url(#clip0)">
<path d="M4.75759 15.4163L5.05185 15.5618C6.2781 16.2889 7.65137 16.6283 9.02471 16.6283C13.3408 16.6283 16.8722 13.1378 16.8722 8.87166C16.8722 6.83558 16.0384 4.84793 14.567 3.39355C13.0956 1.93916 11.1337 1.11505 9.02471 1.11505C4.70858 1.11505 1.17714 4.60552 1.22621 8.92017C1.22621 10.3745 1.66764 11.7804 2.40331 12.9923L2.59949 13.2833L1.8148 16.1435L4.75759 15.4163Z" fill="#00E676"/>
<path d="M15.4008 2.61785C13.7332 0.921127 11.428 0 9.07369 0C4.07095 0 0.0490781 4.02373 0.0980859 8.92008C0.0980859 10.4714 0.539508 11.9743 1.27526 13.3317L0 17.9372L4.75756 16.7252C6.08182 17.4524 7.55318 17.7918 9.02468 17.7918C13.9784 17.7918 18.0003 13.768 18.0003 8.87171C18.0003 6.49619 17.0684 4.26614 15.4008 2.61785H15.4008ZM9.07369 16.289C7.74942 16.289 6.42516 15.9497 5.29706 15.271L5.0028 15.1255L2.1581 15.8527L2.89378 13.0894L2.69761 12.7985C0.539508 9.35653 1.56952 4.7994 5.10089 2.66629C8.63227 0.533259 13.1936 1.55134 15.3517 5.04181C17.5098 8.53228 16.4798 13.0408 12.9485 15.1739C11.8203 15.9011 10.447 16.2889 9.07369 16.2889V16.289ZM13.3898 10.9079L12.8503 10.6655C12.8503 10.6655 12.0656 10.3261 11.5751 10.0837C11.526 10.0837 11.477 10.0352 11.428 10.0352C11.2808 10.0352 11.1827 10.0837 11.0846 10.1322C11.0846 10.1322 11.0356 10.1806 10.3489 10.9563C10.2999 11.0533 10.2018 11.1018 10.1037 11.1018H10.0546C10.0056 11.1018 9.90752 11.0533 9.85845 11.0048L9.61319 10.9079C9.07369 10.6655 8.58326 10.3745 8.19084 9.98673C8.09276 9.88978 7.94559 9.79284 7.84751 9.69589C7.50417 9.35653 7.16084 8.96866 6.91566 8.53235L6.86658 8.4354C6.81757 8.38689 6.81757 8.33845 6.76849 8.2415C6.76849 8.14455 6.76849 8.0476 6.81757 7.99909C6.81757 7.99909 7.01374 7.75668 7.16084 7.61129C7.25899 7.51427 7.308 7.36888 7.40609 7.27193C7.50417 7.12647 7.55325 6.93257 7.50417 6.78711C7.45516 6.5447 6.86658 5.23578 6.71948 4.94493C6.62133 4.79947 6.52331 4.75103 6.37615 4.70252H5.83664C5.73848 4.70252 5.64047 4.75103 5.54231 4.75103L5.49323 4.79947C5.39515 4.84798 5.29706 4.94493 5.19898 4.99337C5.10089 5.09039 5.05181 5.18727 4.95373 5.28429C4.61039 5.7206 4.41422 6.25385 4.41422 6.78711C4.41422 7.17491 4.5123 7.56278 4.65947 7.90214L4.70855 8.0476C5.14997 8.96866 5.73848 9.79284 6.52331 10.52L6.71948 10.7139C6.86658 10.8594 7.01374 10.9563 7.11183 11.1017C8.14184 11.9744 9.31894 12.6046 10.6432 12.9439C10.7904 12.9924 10.9865 12.9924 11.1337 13.0409H11.6241C11.8694 13.0409 12.1636 12.9439 12.3599 12.847C12.507 12.75 12.6051 12.75 12.7031 12.6531L12.8013 12.5561C12.8994 12.4591 12.9975 12.4107 13.0956 12.3137C13.1936 12.2168 13.2917 12.1198 13.3408 12.0228C13.4389 11.8289 13.4879 11.5865 13.537 11.3442V11.0048C13.537 11.0048 13.4879 10.9563 13.3898 10.9079Z" fill="white"/>
</g>
<defs>
<clipPath id="clip0">
<rect width="18" height="18" fill="white"/>
</clipPath>
</defs>
</svg>
